<svg width="12" height="12" viewBox="0 0 12 12" fill="none" xmlns="http://www.w3.org/2000/svg">
<path d="M9.80176 3.8678L6.28801 7.32605C6.21134 7.40189 6.10785 7.44443 6.00001 7.44443C5.89216 7.44443 5.78867 7.40189 5.71201 7.32605L2.19751 3.86855C2.12037 3.79274 2.01654 3.75026 1.90838 3.75026C1.80023 3.75026 1.6964 3.79274 1.61926 3.86855C1.58127 3.90558 1.55108 3.94984 1.53047 3.99872C1.50986 4.04761 1.49924 4.10012 1.49924 4.15317C1.49924 4.20622 1.50986 4.25874 1.53047 4.30762C1.55108 4.3565 1.58127 4.40076 1.61926 4.4378L5.13226 7.8953C5.36365 8.12249 5.67498 8.24978 5.99926 8.24978C6.32354 8.24978 6.63487 8.12249 6.86626 7.8953L10.3793 4.4378C10.4174 4.40075 10.4476 4.35644 10.4683 4.30749C10.489 4.25854 10.4997 4.20594 10.4997 4.1528C10.4997 4.09965 10.489 4.04705 10.4683 3.9981C10.4476 3.94915 10.4174 3.90484 10.3793 3.8678C10.3021 3.79199 10.1983 3.74951 10.0901 3.74951C9.98198 3.74951 9.87815 3.79199 9.80101 3.8678" fill="white"/>
</svg>
